# xmcd
#
# Track frame offsets:
#	150
#	15359
#	30404
#	46960
#	63039
#	79938
#	96785
#	114203
#	128898
#	144101
#	162816
#	176366
#	192806
#	206906
#
# Disc length: 2931 seconds
#
# Revision: 7
# Processed by: cddbd v1.5.2PL0 Copyright (c) Steve Scherf et al.
# Submitted via: EasyCDDAExtractor 10.0.3.1
#
DISCID=a40b710e
DTITLE=Stachursky - Finał
DYEAR=2002
DGENRE=Pop
TTITLE0=Fina³
TTITLE1=Cud
TTITLE2=Kocham Ciê
TTITLE3=Teraz ju¿ wiem (co czujê)
TTITLE4=Nie znamy siê
TTITLE5=I bêdê mia³ to wszystko
TTITLE6=Bo¿e, dziêki Ci
TTITLE7=Nic o tym nie wiem
TTITLE8=Tylko Ja
TTITLE9=Nie zostawiaj mnie
TTITLE10=Razem z nami
TTITLE11=Przeznaczenie
TTITLE12=Wilcze echa
TTITLE13=Samo ¿ycie
EXTD=YEAR: 2002
EXTT0=
EXTT1=
EXTT2=
EXTT3=
EXTT4=
EXTT5=
EXTT6=
EXTT7=
EXTT8=
EXTT9=
EXTT10=
EXTT11=
EXTT12=
EXTT13=
PLAYORDER=
